<svg width="17" height="17" viewBox="0 0 17 17" fill="none" xmlns="http://www.w3.org/2000/svg">
<path fill-rule="evenodd" clip-rule="evenodd" d="M6.43811 4.74973C6.28811 4.41622 6.13017 4.40954 5.98746 4.40371C5.87073 4.3987 5.73709 4.39901 5.60367 4.39901C5.47015 4.39901 5.25316 4.44919 5.06967 4.64958C4.88607 4.84998 4.36865 5.33443 4.36865 6.31972C4.36865 7.30511 5.08636 8.25722 5.1864 8.39095C5.28655 8.52448 6.57185 10.6111 8.60741 11.4138C10.2991 12.0809 10.6434 11.9482 11.0106 11.9148C11.3778 11.8814 12.1954 11.4305 12.3623 10.9628C12.5293 10.4952 12.5293 10.0945 12.4792 10.0107C12.4291 9.92724 12.2956 9.87716 12.0953 9.77702C11.895 9.67687 10.9104 9.19232 10.7268 9.12555C10.5432 9.05879 10.4097 9.02541 10.2762 9.22591C10.1427 9.4262 9.75908 9.87716 9.64225 10.0107C9.52541 10.1445 9.40857 10.1612 9.20828 10.0611C9.00799 9.96062 8.36299 9.74937 7.59782 9.06712C7.00248 8.53635 6.60053 7.88081 6.4837 7.68032C6.36686 7.48003 6.47117 7.37154 6.57164 7.2717C6.66156 7.18198 6.77193 7.03792 6.87208 6.92098C6.97201 6.80403 7.00539 6.72058 7.07215 6.58705C7.13892 6.45331 7.10554 6.33638 7.05546 6.23623C7.00539 6.13609 6.61618 5.14572 6.43811 4.74973Z" fill="white"/>
<path d="M14.1108 2.43718C12.5975 0.922789 10.5852 0.0883504 8.44125 0.0874023C4.02328 0.0874023 0.427947 3.68158 0.426171 8.09935C0.42565 9.51152 0.794626 10.89 1.49595 12.1051L0.358887 16.2569L4.60777 15.1428C5.77843 15.7812 7.09649 16.1177 8.43781 16.1182H8.44121H8.44125C12.8585 16.1182 16.4543 12.5234 16.4562 8.10581C16.457 5.96479 15.624 3.95167 14.1108 2.43718ZM8.44125 14.765H8.43865C7.24306 14.7643 6.07062 14.4434 5.04799 13.8365L4.80461 13.6923L2.28324 14.3533L2.95641 11.8959L2.79784 11.644C2.13094 10.5836 1.77887 9.35816 1.77939 8.09988C1.78085 4.42799 4.76915 1.44073 8.44376 1.44073C10.2232 1.44146 11.8957 2.13507 13.1535 3.39378C14.4113 4.65249 15.1034 6.32574 15.1029 8.10532C15.1013 11.7773 12.1129 14.765 8.44125 14.765Z" fill="white"/>
</svg>
