<svg width="109" height="30" viewBox="0 0 109 30" fill="none" xmlns="http://www.w3.org/2000/svg">
<path d="M6.7999 0.999941V22.8399H16.7999V28.9999H0.399902V0.999941H6.7999Z" fill="currentColor"/>
<path d="M41.6971 25.3599C38.8704 28.1599 35.4304 29.5599 31.3771 29.5599C27.3238 29.5599 23.8838 28.1599 21.0571 25.3599C18.2304 22.5599 16.8171 19.1066 16.8171 14.9999C16.8171 10.8933 18.2304 7.43994 21.0571 4.63994C23.8838 1.83994 27.3238 0.439941 31.3771 0.439941C35.4304 0.439941 38.8704 1.83994 41.6971 4.63994C44.5238 7.43994 45.9371 10.8933 45.9371 14.9999C45.9371 19.1066 44.5238 22.5599 41.6971 25.3599ZM23.2171 14.9999C23.2171 17.4533 23.9904 19.4533 25.5371 20.9999C27.0838 22.5466 29.0304 23.3199 31.3771 23.3199C33.6971 23.3199 35.6304 22.5466 37.1771 20.9999C38.7504 19.4266 39.5371 17.4266 39.5371 14.9999C39.5371 12.5733 38.7504 10.5733 37.1771 8.99994C35.6304 7.45328 33.6971 6.67994 31.3771 6.67994C29.0304 6.67994 27.0838 7.45328 25.5371 8.99994C23.9904 10.5466 23.2171 12.5466 23.2171 14.9999Z" fill="currentColor"/>
<path d="M63.2205 13.3999H77.2605V15.7999C77.2605 19.9599 75.9539 23.3066 73.3405 25.8399C70.7539 28.3199 67.4605 29.5599 63.4605 29.5599C59.1139 29.5599 55.5005 28.1599 52.6205 25.3599C49.7672 22.5599 48.3405 19.1199 48.3405 15.0399C48.3405 10.9599 49.7539 7.50661 52.5805 4.67994C55.4072 1.85327 58.8872 0.439941 63.0205 0.439941C65.6072 0.439941 67.9805 1.02661 70.1405 2.19994C72.3272 3.34661 74.0339 4.89328 75.2605 6.83994L69.8205 9.95994C69.1805 8.97328 68.2472 8.18661 67.0205 7.59994C65.8205 6.98661 64.4739 6.67994 62.9805 6.67994C60.6072 6.67994 58.6339 7.46661 57.0605 9.03994C55.5139 10.5866 54.7405 12.5999 54.7405 15.0799C54.7405 17.4799 55.5405 19.4666 57.1405 21.0399C58.7405 22.5599 60.8739 23.3199 63.5405 23.3199C67.2205 23.3199 69.6072 21.8799 70.7005 18.9999H63.2205V13.3999Z" fill="currentColor"/>
<path d="M104.549 25.3599C101.722 28.1599 98.282 29.5599 94.2287 29.5599C90.1753 29.5599 86.7353 28.1599 83.9087 25.3599C81.082 22.5599 79.6687 19.1066 79.6687 14.9999C79.6687 10.8933 81.082 7.43994 83.9087 4.63994C86.7353 1.83994 90.1753 0.439941 94.2287 0.439941C98.282 0.439941 101.722 1.83994 104.549 4.63994C107.375 7.43994 108.789 10.8933 108.789 14.9999C108.789 19.1066 107.375 22.5599 104.549 25.3599ZM86.0686 14.9999C86.0686 17.4533 86.842 19.4533 88.3886 20.9999C89.9353 22.5466 91.882 23.3199 94.2287 23.3199C96.5487 23.3199 98.482 22.5466 100.029 20.9999C101.602 19.4266 102.389 17.4266 102.389 14.9999C102.389 12.5733 101.602 10.5733 100.029 8.99994C98.482 7.45328 96.5487 6.67994 94.2287 6.67994C91.882 6.67994 89.9353 7.45328 88.3886 8.99994C86.842 10.5466 86.0686 12.5466 86.0686 14.9999Z" fill="currentColor"/>
</svg>
